HIERARCHY
ROOT mixamorig_Hips
{
	OFFSET -0.000329 0.934763 0.013172
	CHANNELS 6 Xposition Yposition Zposition Xrotation Yrotation Zrotation
	JOINT mixamorig_Spine
	{
		OFFSET -0.000531 0.096594 0.001533
		CHANNELS 3 Xrotation Yrotation Zrotation
		JOINT mixamorig_Spine1
		{
			OFFSET -0.000284 0.099406 -0.006202
			CHANNELS 3 Xrotation Yrotation Zrotation
			JOINT mixamorig_Spine2
			{
				OFFSET -0.000665 0.100821 -0.005436
				CHANNELS 3 Xrotation Yrotation Zrotation
				JOINT mixamorig_Neck
				{
					OFFSET -0.003569 0.181005 -0.017910
					CHANNELS 3 Xrotation Yrotation Zrotation
					JOINT mixamorig_Head
					{
						OFFSET -0.000567 0.090675 0.004608
						CHANNELS 3 Xrotation Yrotation Zrotation
						End Site
						{
							OFFSET -0.027755 0.065308 0.087730
						}
						End Site
						{
							OFFSET 0.030266 0.066100 0.089151
						}
						End Site
						{
							OFFSET 0.000889 0.164225 0.030118
						}
					}
				}
				JOINT mixamorig_LeftShoulder
				{
					OFFSET 0.040153 0.123825 -0.018173
					CHANNELS 3 Xrotation Yrotation Zrotation
					JOINT mixamorig_LeftArm
					{
						OFFSET 0.096846 -0.006770 -0.015789
						CHANNELS 3 Xrotation Yrotation Zrotation
						JOINT mixamorig_LeftForeArm
						{
							OFFSET 0.260836 0.000158 -0.012098
							CHANNELS 3 Xrotation Yrotation Zrotation
							JOINT mixamorig_LeftHand
							{
								OFFSET 0.260721 0.009445 0.003518
								CHANNELS 3 Xrotation Yrotation Zrotation
								JOINT mixamorig_LeftHandThumb1
								{
									OFFSET 0.020007 -0.013915 0.025888
									CHANNELS 3 Xrotation Yrotation Zrotation
									JOINT mixamorig_LeftHandThumb2
									{
										OFFSET 0.024753 -0.016879 0.017465
										CHANNELS 3 Xrotation Yrotation Zrotation
										JOINT mixamorig_LeftHandThumb3
										{
											OFFSET 0.022267 -0.009924 0.010944
											CHANNELS 3 Xrotation Yrotation Zrotation
											End Site
											{
												OFFSET 0.012616 -0.008684 0.013475
											}
										}
									}
								}
								JOINT mixamorig_LeftHandIndex1
								{
									OFFSET 0.075712 -0.004005 0.022878
									CHANNELS 3 Xrotation Yrotation Zrotation
									JOINT mixamorig_LeftHandIndex2
									{
										OFFSET 0.032025 0.000805 0.000360
										CHANNELS 3 Xrotation Yrotation Zrotation
										JOINT mixamorig_LeftHandIndex3
										{
											OFFSET 0.021636 -0.000922 0.001709
											CHANNELS 3 Xrotation Yrotation Zrotation
											End Site
											{
												OFFSET 0.022272 0.000343 -0.000989
											}
										}
									}
								}
								JOINT mixamorig_LeftHandMiddle1
								{
									OFFSET 0.077672 0.000197 0.003119
									CHANNELS 3 Xrotation Yrotation Zrotation
									JOINT mixamorig_LeftHandMiddle2
									{
										OFFSET 0.028817 -0.000836 0.000007
										CHANNELS 3 Xrotation Yrotation Zrotation
										JOINT mixamorig_LeftHandMiddle3
										{
											OFFSET 0.027734 -0.001265 -0.001079
											CHANNELS 3 Xrotation Yrotation Zrotation
											End Site
											{
												OFFSET 0.021544 0.002739 0.001746
											}
										}
									}
								}
								JOINT mixamorig_LeftHandRing1
								{
									OFFSET 0.072647 0.000468 -0.012545
									CHANNELS 3 Xrotation Yrotation Zrotation
									JOINT mixamorig_LeftHandRing2
									{
										OFFSET 0.023428 0.001297 -0.001540
										CHANNELS 3 Xrotation Yrotation Zrotation
										JOINT mixamorig_LeftHandRing3
										{
											OFFSET 0.025300 -0.000202 0.000300
											CHANNELS 3 Xrotation Yrotation Zrotation
											End Site
											{
												OFFSET 0.021378 -0.000642 0.000026
											}
										}
									}
								}
								JOINT mixamorig_LeftHandPinky1
								{
									OFFSET 0.067362 -0.004561 -0.028241
									CHANNELS 3 Xrotation Yrotation Zrotation
									JOINT mixamorig_LeftHandPinky2
									{
										OFFSET 0.024539 0.000905 -0.001802
										CHANNELS 3 Xrotation Yrotation Zrotation
										JOINT mixamorig_LeftHandPinky3
										{
											OFFSET 0.016774 0.000497 -0.000418
											CHANNELS 3 Xrotation Yrotation Zrotation
											End Site
											{
												OFFSET 0.016253 0.001664 -0.000439
											}
										}
									}
								}
							}
						}
					}
				}
				JOINT mixamorig_RightShoulder
				{
					OFFSET -0.044710 0.123416 -0.018691
					CHANNELS 3 Xrotation Yrotation Zrotation
					JOINT mixamorig_RightArm
					{
						OFFSET -0.093285 -0.007451 -0.015294
						CHANNELS 3 Xrotation Yrotation Zrotation
						JOINT mixamorig_RightForeArm
						{
							OFFSET -0.260082 -0.000676 -0.016999
							CHANNELS 3 Xrotation Yrotation Zrotation
							JOINT mixamorig_RightHand
							{
								OFFSET -0.269354 0.006819 -0.001623
								CHANNELS 3 Xrotation Yrotation Zrotation
								JOINT mixamorig_RightHandPinky1
								{
									OFFSET -0.068944 -0.004710 -0.027276
									CHANNELS 3 Xrotation Yrotation Zrotation
									JOINT mixamorig_RightHandPinky2
									{
										OFFSET -0.028424 0.000709 -0.002294
										CHANNELS 3 Xrotation Yrotation Zrotation
										JOINT mixamorig_RightHandPinky3
										{
											OFFSET -0.014087 -0.000537 -0.000408
											CHANNELS 3 Xrotation Yrotation Zrotation
											End Site
											{
												OFFSET -0.016161 0.000319 -0.000701
											}
										}
									}
								}
								JOINT mixamorig_RightHandRing1
								{
									OFFSET -0.073644 -0.000271 -0.011566
									CHANNELS 3 Xrotation Yrotation Zrotation
									JOINT mixamorig_RightHandRing2
									{
										OFFSET -0.022262 0.002187 -0.001227
										CHANNELS 3 Xrotation Yrotation Zrotation
										JOINT mixamorig_RightHandRing3
										{
											OFFSET -0.024959 0.000014 0.001033
											CHANNELS 3 Xrotation Yrotation Zrotation
											End Site
											{
												OFFSET -0.020342 -0.002927 -0.000438
											}
										}
									}
								}
								JOINT mixamorig_RightHandMiddle1
								{
									OFFSET -0.078465 0.000178 0.003924
									CHANNELS 3 Xrotation Yrotation Zrotation
									JOINT mixamorig_RightHandMiddle2
									{
										OFFSET -0.030586 0.000877 -0.000514
										CHANNELS 3 Xrotation Yrotation Zrotation
										JOINT mixamorig_RightHandMiddle3
										{
											OFFSET -0.024860 -0.001171 -0.001812
											CHANNELS 3 Xrotation Yrotation Zrotation
											End Site
											{
												OFFSET -0.022346 -0.000216 0.001043
											}
										}
									}
								}
								JOINT mixamorig_RightHandIndex1
								{
									OFFSET -0.077138 -0.004903 0.023488
									CHANNELS 3 Xrotation Yrotation Zrotation
									JOINT mixamorig_RightHandIndex2
									{
										OFFSET -0.032982 0.000016 -0.000651
										CHANNELS 3 Xrotation Yrotation Zrotation
										JOINT mixamorig_RightHandIndex3
										{
											OFFSET -0.021521 -0.001038 0.000640
											CHANNELS 3 Xrotation Yrotation Zrotation
											End Site
											{
												OFFSET -0.019633 -0.001183 -0.002236
											}
										}
									}
								}
								JOINT mixamorig_RightHandThumb1
								{
									OFFSET -0.019217 -0.014120 0.025973
									CHANNELS 3 Xrotation Yrotation Zrotation
									JOINT mixamorig_RightHandThumb2
									{
										OFFSET -0.024531 -0.016682 0.017772
										CHANNELS 3 Xrotation Yrotation Zrotation
										JOINT mixamorig_RightHandThumb3
										{
											OFFSET -0.020595 -0.008213 0.010052
											CHANNELS 3 Xrotation Yrotation Zrotation
											End Site
											{
												OFFSET -0.018779 -0.008914 0.011284
											}
										}
									}
								}
							}
						}
					}
				}
			}
		}
	}
	JOINT mixamorig_LeftUpLeg
	{
		OFFSET 0.082644 -0.061097 -0.015299
		CHANNELS 3 Xrotation Yrotation Zrotation
		JOINT mixamorig_LeftLeg
		{
			OFFSET 0.011706 -0.407894 -0.000411
			CHANNELS 3 Xrotation Yrotation Zrotation
			JOINT mixamorig_LeftFoot
			{
				OFFSET -0.009807 -0.381384 -0.042699
				CHANNELS 3 Xrotation Yrotation Zrotation
				JOINT mixamorig_LeftToeBase
				{
					OFFSET -0.009374 -0.069665 0.102141
					CHANNELS 3 Xrotation Yrotation Zrotation
					End Site
					{
						OFFSET -0.003020 -0.006885 0.094051
					}
				}
			}
		}
	}
	JOINT mixamorig_RightUpLeg
	{
		OFFSET -0.081973 -0.063719 -0.012470
		CHANNELS 3 Xrotation Yrotation Zrotation
		JOINT mixamorig_RightLeg
		{
			OFFSET -0.006811 -0.412091 0.011100
			CHANNELS 3 Xrotation Yrotation Zrotation
			JOINT mixamorig_RightFoot
			{
				OFFSET 0.004573 -0.370721 -0.055504
				CHANNELS 3 Xrotation Yrotation Zrotation
				JOINT mixamorig_RightToeBase
				{
					OFFSET 0.011350 -0.073821 0.101054
					CHANNELS 3 Xrotation Yrotation Zrotation
					End Site
					{
						OFFSET 0.000203 -0.006417 0.095416
					}
				}
			}
		}
	}
}
MOTION
Frames: 5
Frame Time: 0.03333333333333333
0.052198 -0.037169 -0.000824 2.327389 8.992890 -2.660551 0.614597 -0.208628 0.400964 -0.021007 -0.262105 3.283039 0.041772 -0.448030 0.082671 -0.182835 0.030109 0.903822 0.167422 0.353120 -0.755745 -0.003286 -0.072956 0.023149 -6.168049 -15.253333 -75.728309 -0.168883 -4.041558 -5.937931 0.175371 0.108960 -0.284970 -0.000026 -0.000002 -0.000018 0.000007 0.000022 0.000006 0.000012 0.000046 0.000015 0.004261 0.002033 -0.020990 0.080209 0.062610 -0.578150 -0.000005 0.000003 -0.000000 0.235661 0.092359 -1.102072 1.718215 0.583106 -8.046930 -0.000022 0.000006 -0.000007 1.695705 0.639318 -8.433303 1.533386 0.688151 -8.460311 0.000005 0.000001 -0.000000 1.329234 0.646603 -8.226154 1.122851 0.732831 -8.240606 0.000006 -0.000002 -0.000002 0.003098 -0.553232 0.275471 -1.992399 -10.636548 76.622577 -0.456102 4.642760 7.019596 -0.273677 -0.144006 0.428550 0.000044 -0.000002 -0.000039 -0.000038 -0.000013 0.000072 -0.000013 0.000001 -0.000003 0.000001 0.000003 -0.000000 0.000026 0.000003 -0.000012 -0.000013 -0.000003 -0.000000 0.000017 -0.000009 -0.000007 -0.000000 0.000001 -0.000004 0.000009 0.000001 -0.000002 -0.100357 -0.027131 -0.352914 -0.025741 -0.026384 -0.366696 -0.000004 0.000002 -0.000001 0.000015 0.000037 -0.000003 -0.000002 0.000003 -0.000006 -0.000003 0.000004 -0.000005 -21.049787 -0.964640 2.901451 17.559548 0.523914 4.997105 -0.263401 0.994861 0.022499 0.000000 -0.000000 -0.000000 -6.735758 -0.258530 4.356157 5.514738 -0.084874 5.662944 -0.033718 1.117644 0.182965 0.000000 0.000000 -0.000000 
0.052104 -0.037194 -0.000673 2.371782 9.002677 -2.649177 0.613362 -0.204912 0.397578 -0.024115 -0.254419 3.277314 0.038467 -0.440191 0.077250 -0.179381 0.033945 0.886987 0.167691 0.351671 -0.744088 -0.000867 -0.077420 0.015934 -6.190789 -15.259105 -75.728789 -0.166469 -4.038888 -5.936284 0.165151 0.108395 -0.271237 -0.000049 0.000045 -0.000009 0.000006 0.000032 0.000008 0.000009 0.000016 0.000007 0.017588 0.008433 -0.087612 0.098537 0.077073 -0.708126 -0.000005 0.000003 -0.000000 0.261367 0.102227 -1.221884 1.805067 0.605631 -8.444813 -0.000022 0.000006 -0.000007 1.720702 0.646544 -8.554371 1.556038 0.696352 -8.581735 -0.000003 -0.000000 0.000005 1.300802 0.636390 -8.059772 1.099150 0.719630 -8.073939 0.000002 -0.000001 -0.000001 0.000104 -0.540882 0.291304 -2.025329 -10.640288 76.632798 -0.456112 4.616805 7.002424 -0.251396 -0.107684 0.427513 0.000006 0.000002 -0.000002 -0.000021 -0.000009 0.000031 -0.000026 -0.000003 0.000001 -0.000018 -0.000009 0.000010 0.000026 0.000003 -0.000017 -0.000030 -0.000007 0.000005 -0.000003 -0.000020 0.000018 -0.000042 -0.000018 -0.000043 0.000013 -0.000000 0.000020 -0.132218 -0.037468 -0.463920 -0.030431 -0.036610 -0.482698 -0.000004 0.000002 -0.000007 0.000005 0.000011 0.000021 0.000038 0.000007 -0.000024 -0.000004 0.000004 -0.000005 -21.090439 -0.959799 2.887185 17.565471 0.523984 4.998029 -0.269220 0.980709 0.022407 0.000000 -0.000000 -0.000000 -6.785334 -0.249462 4.341752 5.534024 -0.083607 5.671737 -0.021346 1.093510 0.173828 0.000000 0.000000 -0.000000 
0.052011 -0.037215 -0.000425 2.424452 9.022855 -2.640046 0.609564 -0.202948 0.394937 -0.031922 -0.250470 3.272103 0.030505 -0.436116 0.072342 -0.176629 0.037469 0.870411 0.167468 0.350135 -0.733384 0.001271 -0.081849 0.009411 -6.211287 -15.261674 -75.732863 -0.162676 -4.035671 -5.934197 0.165841 0.114887 -0.267922 -0.000051 0.000060 0.000000 0.000004 0.000011 0.000001 0.000010 0.000016 0.000007 0.036754 0.017633 -0.183340 0.117675 0.092281 -0.843331 -0.000005 0.000003 -0.000000 0.286324 0.111766 -1.338139 1.887362 0.626347 -8.821198 -0.000022 0.000006 -0.000008 1.739313 0.651870 -8.644390 1.572926 0.702429 -8.672042 -0.000005 -0.000001 0.000010 1.269910 0.625156 -7.878597 1.073404 0.705167 -7.892450 0.000004 -0.000001 -0.000002 -0.002474 -0.528555 0.303442 -2.073646 -10.637779 76.664789 -0.449421 4.539774 6.950451 -0.260148 -0.034310 0.457103 0.000002 0.000012 0.000003 -0.000009 -0.000006 0.000029 -0.000019 -0.000001 -0.000001 -0.000004 -0.000003 0.000013 0.000020 0.000003 -0.000023 -0.000038 -0.000008 0.000006 -0.000008 -0.000010 0.000017 -0.000038 -0.000015 -0.000037 0.000014 -0.000000 0.000017 -0.163350 -0.048239 -0.572244 -0.033654 -0.047356 -0.596130 -0.000002 0.000002 -0.000012 -0.000001 0.000015 0.000011 0.000039 0.000006 -0.000006 -0.000003 0.000004 -0.000005 -21.135774 -0.956799 2.873164 17.571186 0.523923 4.998866 -0.277521 0.955101 0.030438 0.000000 -0.000000 -0.000000 -6.827577 -0.238013 4.333658 5.533877 -0.083396 5.671784 -0.002174 1.058212 0.169778 0.000000 0.000000 -0.000000 
0.051918 -0.037231 -0.000114 2.479276 9.045549 -2.631869 0.603810 -0.201898 0.392774 -0.043422 -0.248522 3.267293 0.018874 -0.434078 0.067860 -0.174957 0.040704 0.853347 0.166593 0.348281 -0.722818 0.003171 -0.085702 0.003541 -6.227974 -15.259889 -75.739525 -0.159013 -4.032838 -5.932314 0.167371 0.122987 -0.272087 -0.000055 0.000059 0.000021 0.000002 -0.000004 -0.000004 0.000011 0.000019 0.000008 0.061082 0.029283 -0.304804 0.137474 0.108062 -0.982453 -0.000005 0.000003 -0.000000 0.310288 0.120878 -1.449646 1.964566 0.645267 -9.173792 -0.000023 0.000006 -0.000008 1.751175 0.655243 -8.701804 1.583720 0.706291 -8.729643 -0.000003 -0.000001 0.000008 1.236698 0.612902 -7.683446 1.045711 0.689506 -7.696964 0.000004 -0.000001 -0.000002 -0.004256 -0.516187 0.309602 -2.124331 -10.636269 76.712870 -0.439669 4.441727 6.884137 -0.287034 0.052755 0.505038 0.000005 0.000023 -0.000001 -0.000018 -0.000006 0.000026 -0.000011 0.000001 -0.000003 0.000010 0.000003 0.000008 0.000020 0.000003 -0.000020 -0.000040 -0.000008 0.000006 -0.000010 -0.000000 0.000006 -0.000023 -0.000012 -0.000015 0.000014 0.000001 0.000006 -0.193813 -0.059436 -0.677913 -0.035468 -0.058604 -0.707022 -0.000002 0.000002 -0.000009 -0.000002 0.000018 0.000009 0.000029 0.000005 0.000005 -0.000003 0.000004 -0.000005 -21.179878 -0.954694 2.860173 17.575674 0.523603 4.999490 -0.287444 0.923136 0.049991 0.000000 -0.000000 -0.000000 -6.861576 -0.226996 4.329178 5.521615 -0.083889 5.666381 0.018613 1.021589 0.170509 0.000000 0.000000 -0.000000 
0.051826 -0.037242 0.000215 2.528025 9.063918 -2.625152 0.597260 -0.200954 0.391343 -0.056423 -0.246921 3.263700 0.005786 -0.432439 0.064617 -0.174638 0.043712 0.835244 0.165028 0.346005 -0.711883 0.004956 -0.088837 -0.002055 -6.237603 -15.252519 -75.746324 -0.157465 -4.031536 -5.931460 0.160343 0.130366 -0.273144 -0.000065 0.000056 0.000035 0.000003 0.000001 -0.000001 0.000012 0.000021 0.000009 0.089883 0.043041 -0.448614 0.157755 0.124256 -1.124210 -0.000005 0.000003 -0.000000 0.332990 0.129472 -1.555219 2.036150 0.662371 -9.500304 -0.000022 0.000006 -0.000008 1.756152 0.656658 -8.725939 1.588262 0.707906 -8.753849 0.000000 0.000001 0.000000 1.201324 0.599635 -7.475148 1.016209 0.672696 -7.488294 0.000002 -0.000002 -0.000002 -0.005218 -0.503208 0.309398 -2.162564 -10.639915 76.768487 -0.430226 4.354099 6.824781 -0.312917 0.125799 0.551453 0.000003 0.000026 -0.000004 -0.000040 -0.000007 0.000013 -0.000011 0.000001 -0.000003 0.000008 0.000010 0.000001 0.000022 0.000002 -0.000010 -0.000034 -0.000007 0.000005 -0.000012 0.000000 -0.000002 -0.000015 -0.000018 0.000003 0.000012 0.000001 -0.000002 -0.223628 -0.071044 -0.780937 -0.035920 -0.070331 -0.815371 -0.000002 0.000002 -0.000001 0.000000 0.000012 0.000017 0.000018 0.000005 -0.000003 -0.000003 0.000004 -0.000005 -21.216270 -0.953204 2.850709 17.580468 0.523245 5.000147 -0.299743 0.893028 0.077690 0.000000 -0.000000 -0.000000 -6.884749 -0.218421 4.328194 5.503842 -0.084717 5.658468 0.038045 0.991562 0.174104 0.000000 0.000000 -0.000000 
